<mxfile host="Electron" agent="Mozilla/5.0 (Windows NT 10.0; Win64; x64) AppleWebKit/537.36 (KHTML, like Gecko) draw.io/24.7.17 Chrome/128.0.6613.36 Electron/32.0.1 Safari/537.36" version="24.7.17">
  <diagram id="R2lEEEUBdFMjLlhIrx00" name="Page-1">
    <mxGraphModel dx="2206" dy="1286" grid="1" gridSize="10" guides="1" tooltips="1" connect="1" arrows="1" fold="1" page="1" pageScale="1" pageWidth="850" pageHeight="1100" math="0" shadow="0" extFonts="Permanent Marker^https://fonts.googleapis.com/css?family=Permanent+Marker">
      <root>
        <mxCell id="0" />
        <mxCell id="1" parent="0" />
        <mxCell id="C-vyLk0tnHw3VtMMgP7b-12" value="" style="edgeStyle=entityRelationEdgeStyle;endArrow=ERzeroToMany;startArrow=ERone;endFill=1;startFill=0;" parent="1" target="C-vyLk0tnHw3VtMMgP7b-17" edge="1">
          <mxGeometry width="100" height="100" relative="1" as="geometry">
            <mxPoint x="700" y="165" as="sourcePoint" />
            <mxPoint x="460" y="205" as="targetPoint" />
          </mxGeometry>
        </mxCell>
        <mxCell id="EC6c7bSiOwEasqj9zHS--4" value="" style="endArrow=none;html=1;rounded=0;" edge="1" parent="1">
          <mxGeometry relative="1" as="geometry">
            <mxPoint x="550" y="280" as="sourcePoint" />
            <mxPoint x="670" y="280" as="targetPoint" />
          </mxGeometry>
        </mxCell>
        <mxCell id="EC6c7bSiOwEasqj9zHS--5" value="&lt;h1&gt;&lt;font style=&quot;font-size: 18px;&quot; face=&quot;Verdana&quot;&gt;Registrar&lt;/font&gt;&lt;/h1&gt;" style="shape=rhombus;perimeter=rhombusPerimeter;whiteSpace=wrap;html=1;align=center;" vertex="1" parent="1">
          <mxGeometry x="670" y="215" width="140" height="130" as="geometry" />
        </mxCell>
        <mxCell id="EC6c7bSiOwEasqj9zHS--8" value="" style="endArrow=none;html=1;rounded=0;" edge="1" parent="1">
          <mxGeometry relative="1" as="geometry">
            <mxPoint x="810" y="279.5" as="sourcePoint" />
            <mxPoint x="920" y="280" as="targetPoint" />
          </mxGeometry>
        </mxCell>
        <mxCell id="EC6c7bSiOwEasqj9zHS--9" value="&lt;h1&gt;&lt;font face=&quot;Verdana&quot; style=&quot;font-size: 24px;&quot;&gt;Cámara&lt;/font&gt;&lt;/h1&gt;" style="whiteSpace=wrap;html=1;align=center;" vertex="1" parent="1">
          <mxGeometry x="400" y="250" width="150" height="60" as="geometry" />
        </mxCell>
        <mxCell id="EC6c7bSiOwEasqj9zHS--10" value="&lt;h1&gt;&lt;font face=&quot;Verdana&quot;&gt;Vehículo&lt;/font&gt;&lt;/h1&gt;" style="whiteSpace=wrap;html=1;align=center;" vertex="1" parent="1">
          <mxGeometry x="920" y="250" width="150" height="60" as="geometry" />
        </mxCell>
        <mxCell id="EC6c7bSiOwEasqj9zHS--11" value="1...x" style="text;strokeColor=none;fillColor=none;html=1;fontSize=12;fontStyle=1;verticalAlign=middle;align=center;" vertex="1" parent="1">
          <mxGeometry x="580" y="250" width="60" height="20" as="geometry" />
        </mxCell>
        <mxCell id="EC6c7bSiOwEasqj9zHS--12" value="&lt;font style=&quot;font-size: 12px;&quot;&gt;1...x&lt;/font&gt;" style="text;strokeColor=none;fillColor=none;html=1;fontSize=24;fontStyle=1;verticalAlign=middle;align=center;" vertex="1" parent="1">
          <mxGeometry x="840" y="250" width="60" height="20" as="geometry" />
        </mxCell>
        <mxCell id="EC6c7bSiOwEasqj9zHS--14" value="desc" style="ellipse;whiteSpace=wrap;html=1;align=center;fontFamily=Verdana;" vertex="1" parent="1">
          <mxGeometry x="360" y="160" width="70" height="30" as="geometry" />
        </mxCell>
        <mxCell id="EC6c7bSiOwEasqj9zHS--15" value="Ubi" style="ellipse;whiteSpace=wrap;html=1;align=center;fontFamily=Verdana;" vertex="1" parent="1">
          <mxGeometry x="410" y="130" width="65" height="30" as="geometry" />
        </mxCell>
        <mxCell id="EC6c7bSiOwEasqj9zHS--16" value="Modelo" style="ellipse;whiteSpace=wrap;html=1;align=center;fontFamily=Verdana;" vertex="1" parent="1">
          <mxGeometry x="480" y="130" width="70" height="30" as="geometry" />
        </mxCell>
        <mxCell id="EC6c7bSiOwEasqj9zHS--17" value="Id" style="ellipse;whiteSpace=wrap;html=1;align=center;fontStyle=4;" vertex="1" parent="1">
          <mxGeometry x="340" y="200" width="55" height="25" as="geometry" />
        </mxCell>
        <mxCell id="EC6c7bSiOwEasqj9zHS--18" value="&lt;font face=&quot;Verdana&quot;&gt;DirIP&lt;/font&gt;" style="ellipse;whiteSpace=wrap;html=1;align=center;fontStyle=4;" vertex="1" parent="1">
          <mxGeometry x="550" y="150" width="50" height="30" as="geometry" />
        </mxCell>
        <mxCell id="EC6c7bSiOwEasqj9zHS--24" value="" style="endArrow=none;html=1;rounded=0;entryX=0.5;entryY=0;entryDx=0;entryDy=0;exitX=0.615;exitY=1;exitDx=0;exitDy=0;exitPerimeter=0;" edge="1" parent="1" source="EC6c7bSiOwEasqj9zHS--15" target="EC6c7bSiOwEasqj9zHS--9">
          <mxGeometry width="50" height="50" relative="1" as="geometry">
            <mxPoint x="450" y="187" as="sourcePoint" />
            <mxPoint x="466" y="250" as="targetPoint" />
          </mxGeometry>
        </mxCell>
        <mxCell id="EC6c7bSiOwEasqj9zHS--27" value="" style="endArrow=none;html=1;rounded=0;" edge="1" parent="1">
          <mxGeometry width="50" height="50" relative="1" as="geometry">
            <mxPoint x="739.71" y="345" as="sourcePoint" />
            <mxPoint x="739.71" y="450" as="targetPoint" />
          </mxGeometry>
        </mxCell>
        <mxCell id="EC6c7bSiOwEasqj9zHS--28" value="" style="endArrow=none;html=1;rounded=0;entryX=0;entryY=0;entryDx=0;entryDy=0;exitX=0.5;exitY=1;exitDx=0;exitDy=0;fontFamily=Verdana;" edge="1" parent="1" source="EC6c7bSiOwEasqj9zHS--29" target="EC6c7bSiOwEasqj9zHS--15">
          <mxGeometry width="50" height="50" relative="1" as="geometry">
            <mxPoint x="410" y="90" as="sourcePoint" />
            <mxPoint x="430" y="130" as="targetPoint" />
          </mxGeometry>
        </mxCell>
        <mxCell id="EC6c7bSiOwEasqj9zHS--29" value="&lt;font style=&quot;font-size: 8px;&quot;&gt;Coordenada x&lt;/font&gt;" style="ellipse;whiteSpace=wrap;html=1;align=center;fontFamily=Verdana;" vertex="1" parent="1">
          <mxGeometry x="365" y="60" width="65" height="30" as="geometry" />
        </mxCell>
        <mxCell id="EC6c7bSiOwEasqj9zHS--30" value="" style="endArrow=none;html=1;rounded=0;entryX=1;entryY=0;entryDx=0;entryDy=0;exitX=0.5;exitY=1;exitDx=0;exitDy=0;fontFamily=Verdana;" edge="1" parent="1" source="EC6c7bSiOwEasqj9zHS--31" target="EC6c7bSiOwEasqj9zHS--15">
          <mxGeometry width="50" height="50" relative="1" as="geometry">
            <mxPoint x="470" y="100" as="sourcePoint" />
            <mxPoint x="472" y="124" as="targetPoint" />
          </mxGeometry>
        </mxCell>
        <mxCell id="EC6c7bSiOwEasqj9zHS--31" value="&lt;font style=&quot;font-size: 8px;&quot;&gt;Coordenada y&lt;/font&gt;" style="ellipse;whiteSpace=wrap;html=1;align=center;fontFamily=Verdana;" vertex="1" parent="1">
          <mxGeometry x="442.5" y="60" width="65" height="30" as="geometry" />
        </mxCell>
        <mxCell id="EC6c7bSiOwEasqj9zHS--32" value="&lt;h1&gt;&lt;font face=&quot;Verdana&quot;&gt;&lt;span style=&quot;font-size: 18px;&quot;&gt;Sistema&lt;/span&gt;&lt;/font&gt;&lt;/h1&gt;" style="shape=rhombus;perimeter=rhombusPerimeter;whiteSpace=wrap;html=1;align=center;" vertex="1" parent="1">
          <mxGeometry x="670" y="450" width="140" height="130" as="geometry" />
        </mxCell>
        <mxCell id="EC6c7bSiOwEasqj9zHS--33" value="1...x" style="text;strokeColor=none;fillColor=none;html=1;fontSize=12;fontStyle=1;verticalAlign=middle;align=center;rotation=-90;" vertex="1" parent="1">
          <mxGeometry x="690" y="380" width="60" height="20" as="geometry" />
        </mxCell>
        <mxCell id="EC6c7bSiOwEasqj9zHS--43" value="" style="endArrow=none;html=1;rounded=0;entryX=0.5;entryY=0;entryDx=0;entryDy=0;exitX=0.5;exitY=1;exitDx=0;exitDy=0;" edge="1" parent="1" source="EC6c7bSiOwEasqj9zHS--16" target="EC6c7bSiOwEasqj9zHS--9">
          <mxGeometry width="50" height="50" relative="1" as="geometry">
            <mxPoint x="460" y="170" as="sourcePoint" />
            <mxPoint x="476" y="260" as="targetPoint" />
          </mxGeometry>
        </mxCell>
        <mxCell id="EC6c7bSiOwEasqj9zHS--44" value="" style="endArrow=none;html=1;rounded=0;entryX=0.5;entryY=0;entryDx=0;entryDy=0;exitX=0.5;exitY=1;exitDx=0;exitDy=0;" edge="1" parent="1" source="EC6c7bSiOwEasqj9zHS--18" target="EC6c7bSiOwEasqj9zHS--9">
          <mxGeometry width="50" height="50" relative="1" as="geometry">
            <mxPoint x="525" y="170" as="sourcePoint" />
            <mxPoint x="485" y="260" as="targetPoint" />
          </mxGeometry>
        </mxCell>
        <mxCell id="EC6c7bSiOwEasqj9zHS--45" value="" style="endArrow=none;html=1;rounded=0;entryX=0.5;entryY=0;entryDx=0;entryDy=0;exitX=0.5;exitY=1;exitDx=0;exitDy=0;" edge="1" parent="1" source="EC6c7bSiOwEasqj9zHS--14" target="EC6c7bSiOwEasqj9zHS--9">
          <mxGeometry width="50" height="50" relative="1" as="geometry">
            <mxPoint x="585" y="190" as="sourcePoint" />
            <mxPoint x="485" y="260" as="targetPoint" />
          </mxGeometry>
        </mxCell>
        <mxCell id="EC6c7bSiOwEasqj9zHS--46" value="" style="endArrow=none;html=1;rounded=0;entryX=0.5;entryY=0;entryDx=0;entryDy=0;exitX=0.5;exitY=1;exitDx=0;exitDy=0;" edge="1" parent="1" source="EC6c7bSiOwEasqj9zHS--17" target="EC6c7bSiOwEasqj9zHS--9">
          <mxGeometry width="50" height="50" relative="1" as="geometry">
            <mxPoint x="405" y="200" as="sourcePoint" />
            <mxPoint x="485" y="260" as="targetPoint" />
          </mxGeometry>
        </mxCell>
        <mxCell id="EC6c7bSiOwEasqj9zHS--47" value="" style="endArrow=none;html=1;rounded=0;entryX=0.5;entryY=0;entryDx=0;entryDy=0;exitX=0.5;exitY=1;exitDx=0;exitDy=0;" edge="1" parent="1" source="EC6c7bSiOwEasqj9zHS--48" target="EC6c7bSiOwEasqj9zHS--5">
          <mxGeometry width="50" height="50" relative="1" as="geometry">
            <mxPoint x="810" y="160" as="sourcePoint" />
            <mxPoint x="740" y="210" as="targetPoint" />
          </mxGeometry>
        </mxCell>
        <mxCell id="EC6c7bSiOwEasqj9zHS--48" value="&lt;font face=&quot;Verdana&quot;&gt;Id&lt;/font&gt;" style="ellipse;whiteSpace=wrap;html=1;align=center;fontStyle=4;" vertex="1" parent="1">
          <mxGeometry x="830" y="140" width="50" height="30" as="geometry" />
        </mxCell>
        <mxCell id="EC6c7bSiOwEasqj9zHS--50" value="Fecha" style="ellipse;whiteSpace=wrap;html=1;align=center;fontFamily=Verdana;" vertex="1" parent="1">
          <mxGeometry x="760" y="110" width="70" height="30" as="geometry" />
        </mxCell>
        <mxCell id="EC6c7bSiOwEasqj9zHS--51" value="Patente" style="ellipse;whiteSpace=wrap;html=1;align=center;fontFamily=Verdana;" vertex="1" parent="1">
          <mxGeometry x="680" y="110" width="70" height="30" as="geometry" />
        </mxCell>
        <mxCell id="EC6c7bSiOwEasqj9zHS--52" value="Velocidad" style="ellipse;whiteSpace=wrap;html=1;align=center;fontFamily=Verdana;" vertex="1" parent="1">
          <mxGeometry x="620" y="140" width="70" height="30" as="geometry" />
        </mxCell>
        <mxCell id="EC6c7bSiOwEasqj9zHS--54" value="" style="endArrow=none;html=1;rounded=0;entryX=0.5;entryY=0;entryDx=0;entryDy=0;exitX=0.5;exitY=1;exitDx=0;exitDy=0;" edge="1" parent="1" source="EC6c7bSiOwEasqj9zHS--50" target="EC6c7bSiOwEasqj9zHS--5">
          <mxGeometry width="50" height="50" relative="1" as="geometry">
            <mxPoint x="865" y="180" as="sourcePoint" />
            <mxPoint x="750" y="225" as="targetPoint" />
          </mxGeometry>
        </mxCell>
        <mxCell id="EC6c7bSiOwEasqj9zHS--55" value="" style="endArrow=none;html=1;rounded=0;entryX=0.5;entryY=0;entryDx=0;entryDy=0;exitX=0.5;exitY=1;exitDx=0;exitDy=0;" edge="1" parent="1" source="EC6c7bSiOwEasqj9zHS--51" target="EC6c7bSiOwEasqj9zHS--5">
          <mxGeometry width="50" height="50" relative="1" as="geometry">
            <mxPoint x="805" y="150" as="sourcePoint" />
            <mxPoint x="750" y="225" as="targetPoint" />
          </mxGeometry>
        </mxCell>
        <mxCell id="EC6c7bSiOwEasqj9zHS--56" value="" style="endArrow=none;html=1;rounded=0;entryX=0.5;entryY=0;entryDx=0;entryDy=0;exitX=0.5;exitY=1;exitDx=0;exitDy=0;" edge="1" parent="1" source="EC6c7bSiOwEasqj9zHS--52" target="EC6c7bSiOwEasqj9zHS--5">
          <mxGeometry width="50" height="50" relative="1" as="geometry">
            <mxPoint x="655" y="150" as="sourcePoint" />
            <mxPoint x="690" y="235" as="targetPoint" />
          </mxGeometry>
        </mxCell>
        <mxCell id="EC6c7bSiOwEasqj9zHS--57" value="" style="endArrow=none;html=1;rounded=0;entryX=0.5;entryY=0;entryDx=0;entryDy=0;" edge="1" parent="1" target="EC6c7bSiOwEasqj9zHS--62">
          <mxGeometry width="50" height="50" relative="1" as="geometry">
            <mxPoint x="739.66" y="580" as="sourcePoint" />
            <mxPoint x="710" y="710" as="targetPoint" />
          </mxGeometry>
        </mxCell>
        <mxCell id="EC6c7bSiOwEasqj9zHS--62" value="&lt;h1&gt;&lt;font face=&quot;Verdana&quot;&gt;API&lt;/font&gt;&lt;/h1&gt;" style="whiteSpace=wrap;html=1;align=center;" vertex="1" parent="1">
          <mxGeometry x="430" y="620" width="150" height="60" as="geometry" />
        </mxCell>
        <mxCell id="EC6c7bSiOwEasqj9zHS--65" value="" style="endArrow=none;html=1;rounded=0;exitX=0.5;exitY=1;exitDx=0;exitDy=0;entryX=0.5;entryY=0;entryDx=0;entryDy=0;" edge="1" parent="1" source="EC6c7bSiOwEasqj9zHS--71" target="EC6c7bSiOwEasqj9zHS--66">
          <mxGeometry width="50" height="50" relative="1" as="geometry">
            <mxPoint x="610" y="840" as="sourcePoint" />
            <mxPoint x="605" y="850" as="targetPoint" />
          </mxGeometry>
        </mxCell>
        <mxCell id="EC6c7bSiOwEasqj9zHS--66" value="&lt;h1&gt;Bases de datos&lt;/h1&gt;" style="whiteSpace=wrap;html=1;align=center;" vertex="1" parent="1">
          <mxGeometry x="430" y="930" width="150" height="60" as="geometry" />
        </mxCell>
        <mxCell id="EC6c7bSiOwEasqj9zHS--72" value="" style="endArrow=none;html=1;rounded=0;exitX=0.5;exitY=1;exitDx=0;exitDy=0;entryX=0.5;entryY=0;entryDx=0;entryDy=0;" edge="1" parent="1" source="EC6c7bSiOwEasqj9zHS--62" target="EC6c7bSiOwEasqj9zHS--71">
          <mxGeometry width="50" height="50" relative="1" as="geometry">
            <mxPoint x="605" y="760" as="sourcePoint" />
            <mxPoint x="605" y="910" as="targetPoint" />
          </mxGeometry>
        </mxCell>
        <mxCell id="EC6c7bSiOwEasqj9zHS--71" value="&lt;h1&gt;&lt;font face=&quot;Verdana&quot;&gt;&lt;span style=&quot;font-size: 18px;&quot;&gt;Guardar&lt;/span&gt;&lt;/font&gt;&lt;/h1&gt;" style="shape=rhombus;perimeter=rhombusPerimeter;whiteSpace=wrap;html=1;align=center;" vertex="1" parent="1">
          <mxGeometry x="435" y="730" width="140" height="130" as="geometry" />
        </mxCell>
        <mxCell id="EC6c7bSiOwEasqj9zHS--75" value="" style="endArrow=none;html=1;rounded=0;exitX=0.5;exitY=1;exitDx=0;exitDy=0;entryX=0.5;entryY=0;entryDx=0;entryDy=0;" edge="1" parent="1" source="EC6c7bSiOwEasqj9zHS--79" target="EC6c7bSiOwEasqj9zHS--76">
          <mxGeometry width="50" height="50" relative="1" as="geometry">
            <mxPoint x="920" y="640" as="sourcePoint" />
            <mxPoint x="800" y="690" as="targetPoint" />
          </mxGeometry>
        </mxCell>
        <mxCell id="EC6c7bSiOwEasqj9zHS--76" value="&lt;h1&gt;&lt;font face=&quot;Verdana&quot;&gt;&lt;span style=&quot;font-size: 20px;&quot;&gt;Impresora&lt;/span&gt;&lt;/font&gt;&lt;/h1&gt;" style="whiteSpace=wrap;html=1;align=center;" vertex="1" parent="1">
          <mxGeometry x="665" y="820" width="150" height="60" as="geometry" />
        </mxCell>
        <mxCell id="EC6c7bSiOwEasqj9zHS--77" value="&lt;h1&gt;&lt;font style=&quot;font-size: 20px;&quot; face=&quot;Verdana&quot;&gt;Correo Electrónico&lt;/font&gt;&lt;/h1&gt;" style="whiteSpace=wrap;html=1;align=center;" vertex="1" parent="1">
          <mxGeometry x="1080" y="840" width="150" height="60" as="geometry" />
        </mxCell>
        <mxCell id="EC6c7bSiOwEasqj9zHS--78" value="" style="endArrow=none;html=1;rounded=0;exitX=0.5;exitY=1;exitDx=0;exitDy=0;entryX=0.5;entryY=0;entryDx=0;entryDy=0;" edge="1" parent="1" source="EC6c7bSiOwEasqj9zHS--83" target="EC6c7bSiOwEasqj9zHS--77">
          <mxGeometry width="50" height="50" relative="1" as="geometry">
            <mxPoint x="925" y="610" as="sourcePoint" />
            <mxPoint x="990" y="730" as="targetPoint" />
          </mxGeometry>
        </mxCell>
        <mxCell id="EC6c7bSiOwEasqj9zHS--80" value="" style="endArrow=none;html=1;rounded=0;exitX=0.5;exitY=1;exitDx=0;exitDy=0;entryX=0.5;entryY=0;entryDx=0;entryDy=0;" edge="1" parent="1" source="EC6c7bSiOwEasqj9zHS--32" target="EC6c7bSiOwEasqj9zHS--79">
          <mxGeometry width="50" height="50" relative="1" as="geometry">
            <mxPoint x="740" y="580" as="sourcePoint" />
            <mxPoint x="795" y="760" as="targetPoint" />
          </mxGeometry>
        </mxCell>
        <mxCell id="EC6c7bSiOwEasqj9zHS--79" value="&lt;h1&gt;&lt;font face=&quot;Verdana&quot;&gt;&lt;span style=&quot;font-size: 18px;&quot;&gt;Imprimir&lt;/span&gt;&lt;/font&gt;&lt;/h1&gt;" style="shape=rhombus;perimeter=rhombusPerimeter;whiteSpace=wrap;html=1;align=center;" vertex="1" parent="1">
          <mxGeometry x="670" y="630" width="140" height="130" as="geometry" />
        </mxCell>
        <mxCell id="EC6c7bSiOwEasqj9zHS--84" value="" style="endArrow=none;html=1;rounded=0;exitX=0.5;exitY=1;exitDx=0;exitDy=0;entryX=0.5;entryY=0;entryDx=0;entryDy=0;" edge="1" parent="1" source="EC6c7bSiOwEasqj9zHS--32" target="EC6c7bSiOwEasqj9zHS--83">
          <mxGeometry width="50" height="50" relative="1" as="geometry">
            <mxPoint x="740" y="580" as="sourcePoint" />
            <mxPoint x="1025" y="680" as="targetPoint" />
          </mxGeometry>
        </mxCell>
        <mxCell id="EC6c7bSiOwEasqj9zHS--83" value="&lt;h1&gt;&lt;font face=&quot;Verdana&quot;&gt;&lt;span style=&quot;font-size: 18px;&quot;&gt;Enviar&lt;/span&gt;&lt;/font&gt;&lt;/h1&gt;" style="shape=rhombus;perimeter=rhombusPerimeter;whiteSpace=wrap;html=1;align=center;" vertex="1" parent="1">
          <mxGeometry x="1085" y="650" width="140" height="130" as="geometry" />
        </mxCell>
        <mxCell id="EC6c7bSiOwEasqj9zHS--85" value="&lt;font style=&quot;font-size: 20px;&quot;&gt;1&lt;/font&gt;" style="text;strokeColor=none;fillColor=none;html=1;fontSize=12;fontStyle=1;verticalAlign=middle;align=center;rotation=-15;" vertex="1" parent="1">
          <mxGeometry x="598.13" y="570" width="60" height="20" as="geometry" />
        </mxCell>
        <mxCell id="EC6c7bSiOwEasqj9zHS--86" value="&lt;font style=&quot;font-size: 20px;&quot;&gt;1...x&lt;/font&gt;" style="text;strokeColor=none;fillColor=none;html=1;fontSize=12;fontStyle=1;verticalAlign=middle;align=center;" vertex="1" parent="1">
          <mxGeometry x="435" y="890" width="60" height="20" as="geometry" />
        </mxCell>
        <mxCell id="EC6c7bSiOwEasqj9zHS--87" value="&lt;font style=&quot;font-size: 20px;&quot;&gt;1...x&lt;/font&gt;" style="text;strokeColor=none;fillColor=none;html=1;fontSize=12;fontStyle=1;verticalAlign=middle;align=center;" vertex="1" parent="1">
          <mxGeometry x="670" y="780" width="60" height="20" as="geometry" />
        </mxCell>
        <mxCell id="EC6c7bSiOwEasqj9zHS--88" value="&lt;span style=&quot;font-size: 20px;&quot;&gt;1&lt;/span&gt;" style="text;strokeColor=none;fillColor=none;html=1;fontSize=12;fontStyle=1;verticalAlign=middle;align=center;" vertex="1" parent="1">
          <mxGeometry x="1095" y="800" width="60" height="20" as="geometry" />
        </mxCell>
        <mxCell id="EC6c7bSiOwEasqj9zHS--90" value="&lt;span style=&quot;font-size: 20px;&quot;&gt;3&lt;/span&gt;" style="text;strokeColor=none;fillColor=none;html=1;fontSize=12;fontStyle=1;verticalAlign=middle;align=center;" vertex="1" parent="1">
          <mxGeometry x="680" y="600" width="60" height="20" as="geometry" />
        </mxCell>
        <mxCell id="EC6c7bSiOwEasqj9zHS--91" value="Con los datos registrados por la cámara, se envian a un sistema" style="shape=note;size=20;whiteSpace=wrap;html=1;" vertex="1" parent="1">
          <mxGeometry x="830" y="352.5" width="180" height="75" as="geometry" />
        </mxCell>
        <mxCell id="EC6c7bSiOwEasqj9zHS--92" value="x cámaras registran el paso de x vehículos&amp;nbsp;" style="shape=note;size=20;whiteSpace=wrap;html=1;" vertex="1" parent="1">
          <mxGeometry x="495" y="340" width="156.25" height="70" as="geometry" />
        </mxCell>
        <mxCell id="EC6c7bSiOwEasqj9zHS--93" value="El sistema envia la cantidad necesaria de datos registrados a un correo electrónico específico" style="shape=note;size=20;whiteSpace=wrap;html=1;rotation=0;" vertex="1" parent="1">
          <mxGeometry x="1300" y="720" width="170" height="100" as="geometry" />
        </mxCell>
        <mxCell id="EC6c7bSiOwEasqj9zHS--94" value="&lt;span style=&quot;font-size: 20px;&quot;&gt;1...x&lt;/span&gt;" style="text;strokeColor=none;fillColor=none;html=1;fontSize=12;fontStyle=1;verticalAlign=middle;align=center;rotation=10;" vertex="1" parent="1">
          <mxGeometry x="1020" y="600" width="60" height="20" as="geometry" />
        </mxCell>
        <mxCell id="EC6c7bSiOwEasqj9zHS--95" value="" style="endArrow=none;html=1;rounded=0;exitX=0;exitY=1;exitDx=0;exitDy=0;entryX=0;entryY=0;entryDx=146.25;entryDy=10;entryPerimeter=0;" edge="1" parent="1" source="EC6c7bSiOwEasqj9zHS--5" target="EC6c7bSiOwEasqj9zHS--92">
          <mxGeometry width="50" height="50" relative="1" as="geometry">
            <mxPoint x="670" y="345" as="sourcePoint" />
            <mxPoint x="670" y="450" as="targetPoint" />
          </mxGeometry>
        </mxCell>
        <mxCell id="EC6c7bSiOwEasqj9zHS--96" value="" style="endArrow=none;html=1;rounded=0;entryX=0;entryY=0.5;entryDx=0;entryDy=0;entryPerimeter=0;" edge="1" parent="1" target="EC6c7bSiOwEasqj9zHS--91">
          <mxGeometry width="50" height="50" relative="1" as="geometry">
            <mxPoint x="740" y="390" as="sourcePoint" />
            <mxPoint x="749.71" y="460" as="targetPoint" />
          </mxGeometry>
        </mxCell>
        <mxCell id="EC6c7bSiOwEasqj9zHS--98" value="" style="endArrow=none;html=1;rounded=0;exitX=0;exitY=0.5;exitDx=0;exitDy=0;exitPerimeter=0;entryX=1;entryY=0;entryDx=0;entryDy=0;" edge="1" parent="1" source="EC6c7bSiOwEasqj9zHS--93" target="EC6c7bSiOwEasqj9zHS--83">
          <mxGeometry width="50" height="50" relative="1" as="geometry">
            <mxPoint x="1035" y="557.5" as="sourcePoint" />
            <mxPoint x="1035" y="662.5" as="targetPoint" />
          </mxGeometry>
        </mxCell>
        <mxCell id="EC6c7bSiOwEasqj9zHS--100" value="" style="endArrow=none;html=1;rounded=0;exitX=0;exitY=0.5;exitDx=0;exitDy=0;exitPerimeter=0;entryX=1;entryY=0.5;entryDx=0;entryDy=0;" edge="1" parent="1" source="EC6c7bSiOwEasqj9zHS--93" target="EC6c7bSiOwEasqj9zHS--77">
          <mxGeometry width="50" height="50" relative="1" as="geometry">
            <mxPoint x="1445" y="875" as="sourcePoint" />
            <mxPoint x="1215" y="810" as="targetPoint" />
          </mxGeometry>
        </mxCell>
        <mxCell id="EC6c7bSiOwEasqj9zHS--101" value="El sistema dependiendo la velocidad registrada (&amp;lt; 100km/h), envia 3 veces a imprimir a una dispositivo (impresora)" style="shape=note;size=20;whiteSpace=wrap;html=1;rotation=0;" vertex="1" parent="1">
          <mxGeometry x="870" y="710" width="180" height="120" as="geometry" />
        </mxCell>
        <mxCell id="EC6c7bSiOwEasqj9zHS--102" value="" style="endArrow=none;html=1;rounded=0;exitX=0;exitY=0.5;exitDx=0;exitDy=0;exitPerimeter=0;entryX=1;entryY=0.5;entryDx=0;entryDy=0;" edge="1" parent="1" source="EC6c7bSiOwEasqj9zHS--101" target="EC6c7bSiOwEasqj9zHS--76">
          <mxGeometry width="50" height="50" relative="1" as="geometry">
            <mxPoint x="907.5" y="717.5" as="sourcePoint" />
            <mxPoint x="832.5" y="872.5" as="targetPoint" />
          </mxGeometry>
        </mxCell>
        <mxCell id="EC6c7bSiOwEasqj9zHS--103" value="" style="endArrow=none;html=1;rounded=0;entryX=1;entryY=1;entryDx=0;entryDy=0;exitX=0;exitY=0.5;exitDx=0;exitDy=0;exitPerimeter=0;" edge="1" parent="1" source="EC6c7bSiOwEasqj9zHS--101" target="EC6c7bSiOwEasqj9zHS--79">
          <mxGeometry width="50" height="50" relative="1" as="geometry">
            <mxPoint x="900" y="770" as="sourcePoint" />
            <mxPoint x="825" y="860" as="targetPoint" />
          </mxGeometry>
        </mxCell>
        <mxCell id="EC6c7bSiOwEasqj9zHS--105" value="El sistema va a conectarse a una API para luego guardar la cantidad necesaria de multas en una base de datos" style="shape=note;size=20;whiteSpace=wrap;html=1;rotation=0;" vertex="1" parent="1">
          <mxGeometry x="150" y="760" width="170" height="100" as="geometry" />
        </mxCell>
        <mxCell id="EC6c7bSiOwEasqj9zHS--106" value="" style="endArrow=none;html=1;rounded=0;entryX=0;entryY=0;entryDx=170;entryDy=60;exitX=0;exitY=0;exitDx=0;exitDy=0;entryPerimeter=0;" edge="1" parent="1" source="EC6c7bSiOwEasqj9zHS--71" target="EC6c7bSiOwEasqj9zHS--105">
          <mxGeometry width="50" height="50" relative="1" as="geometry">
            <mxPoint x="425" y="765" as="sourcePoint" />
            <mxPoint x="335" y="690" as="targetPoint" />
          </mxGeometry>
        </mxCell>
        <mxCell id="EC6c7bSiOwEasqj9zHS--107" value="" style="endArrow=none;html=1;rounded=0;entryX=0;entryY=0;entryDx=170;entryDy=60;exitX=0;exitY=0.5;exitDx=0;exitDy=0;entryPerimeter=0;" edge="1" parent="1" source="EC6c7bSiOwEasqj9zHS--66" target="EC6c7bSiOwEasqj9zHS--105">
          <mxGeometry width="50" height="50" relative="1" as="geometry">
            <mxPoint x="480" y="772" as="sourcePoint" />
            <mxPoint x="340" y="790" as="targetPoint" />
          </mxGeometry>
        </mxCell>
      </root>
    </mxGraphModel>
  </diagram>
</mxfile>
